<svg xmlns="http://www.w3.org/2000/svg" viewBox="0 0 64 64" width="64" height="64">
  <!-- TripAvail app-icon / avatar tile — white pin-check on rose gradient squircle. -->
  <defs>
    <linearGradient id="ta-rose-tile" x1="0" y1="0" x2="1" y2="1">
      <stop offset="0" stop-color="#FF5D77"/>
      <stop offset="1" stop-color="#E11D48"/>
    </linearGradient>
  </defs>
  <rect width="64" height="64" rx="14.5" fill="url(#ta-rose-tile)"/>
  <g transform="translate(32 33) scale(0.70) translate(-32 -32)">
    <path d="M32 4C19.85 4 10 13.85 10 26c0 9.5 5.9 17.6 12.3 24a92 92 0 0 0 8.3 7.3c.85.62 1.95.62 2.8 0a92 92 0 0 0 8.3-7.3C48.1 43.6 54 35.5 54 26 54 13.85 44.15 4 32 4Z" fill="#fff"/>
    <path d="M23 27l6.4 6.4L41 20.8" fill="none" stroke="#E11D48" stroke-width="6.4" stroke-linecap="round" stroke-linejoin="round"/>
  </g>
</svg>
